<svg xmlns="http://www.w3.org/2000/svg" height="32" width="32" viewBox="0 0 32 32">
    <title>drops</title>
    <g fill="currentColor" class="nc-icon-wrapper">
        <path fill="currentColor" d="M16.7,7.3c-0.4-0.4-1-0.4-1.4,0C14.9,7.7,6,16.5,6,22.2c0,6.1,5.1,9.8,10,9.8s10-3.7,10-9.8 C26,16.5,17.1,7.7,16.7,7.3z"></path>
        <path data-color="color-2" fill="currentColor" d="M27.7,1.3c-0.4-0.4-1-0.4-1.4,0C25.6,2,22,5.6,22,8.2c0,3,2.5,4.8,5,4.8s5-1.8,5-4.8 C32,5.6,28.4,2,27.7,1.3z"></path>
        <path data-color="color-2" fill="currentColor" d="M10,8.2C10,5.6,6.4,2,5.7,1.3c-0.4-0.4-1-0.4-1.4,0C3.6,2,0,5.6,0,8.2c0,3,2.5,4.8,5,4.8 S10,11.2,10,8.2z"></path>
    </g>
</svg>