<svg xmlns="http://www.w3.org/2000/svg" height="32" width="32" viewBox="0 0 32 32">
    <title>bug</title>
    <g fill="currentColor" class="nc-icon-wrapper">
        <path data-color="color-2" d="M21.768,4.367a5.993,5.993,0,0,0-11.536,0,12.852,12.852,0,0,1,11.536,0Z" fill="currentColor"></path>
        <path d="M27,19h4a1,1,0,0,0,0-2H27V16a10.928,10.928,0,0,0-.427-3H27a5.006,5.006,0,0,0,5-5,1,1,0,0,0-2,0,3,3,0,0,1-3,3H25.786A10.98,10.98,0,0,0,6.214,11H5A3,3,0,0,1,2,8,1,1,0,0,0,0,8a5.006,5.006,0,0,0,5,5h.426A10.966,10.966,0,0,0,5,16v1H1a1,1,0,0,0,0,2H5v2a10.989,10.989,0,0,0,.191,2H5a5.006,5.006,0,0,0-5,5,1,1,0,0,0,2,0,3,3,0,0,1,3-3h.764a10.984,10.984,0,0,0,20.472,0H27a3,3,0,0,1,3,3,1,1,0,0,0,2,0,5.006,5.006,0,0,0-5-5h-.191A10.989,10.989,0,0,0,27,21Z" fill="currentColor"></path>
    </g>
</svg>