<svg xmlns="http://www.w3.org/2000/svg" height="32" width="32" viewBox="0 0 32 32">
    <title>candle</title>
    <g fill="currentColor" class="nc-icon-wrapper">
        <path data-color="color-2" fill="currentColor" d="M16,12c2.206,0,4-1.691,4-3.77c0-1.689-2.416-5.607-3.157-6.769L16,0.141l-0.843,1.321 C14.416,2.623,12,6.541,12,8.23C12,10.309,13.794,12,16,12z"></path>
        <path fill="currentColor" d="M26,30h-5V15c0-0.553-0.447-1-1-1h-8c-0.553,0-1,0.447-1,1v15H6c-0.553,0-1,0.447-1,1s0.447,1,1,1h20 c0.553,0,1-0.447,1-1S26.553,30,26,30z"></path>
    </g>
</svg>