<svg xmlns="http://www.w3.org/2000/svg" height="32" width="32" viewBox="0 0 32 32">
    <title>boiling water</title>
    <g fill="currentColor" class="nc-icon-wrapper">
        <path d="M27,9v6H5V9H3V27a4,4,0,0,0,4,4H25a4,4,0,0,0,4-4V9ZM10,25a1,1,0,1,1,1-1A1,1,0,0,1,10,25Zm5-4a1,1,0,1,1,1-1A1,1,0,0,1,15,21Zm6.5,4A1.5,1.5,0,1,1,23,23.5,1.5,1.5,0,0,1,21.5,25Z" fill="currentColor"></path>
        <path d="M30,5H20V4a4,4,0,0,0-8,0V5H2A1,1,0,0,0,2,7H30a1,1,0,0,0,0-2ZM14,4a2,2,0,0,1,4,0V5H14Z" fill="currentColor" data-color="color-2"></path>
    </g>
</svg>