<svg xmlns="http://www.w3.org/2000/svg" height="32" width="32" viewBox="0 0 32 32">
    <title>gold</title>
    <g fill="currentColor" class="nc-icon-wrapper">
        <path fill="currentColor" d="M26.895,21.553C26.725,21.214,26.379,21,26,21h-7c-0.417,0-0.79,0.259-0.937,0.648L16,27.151l-2.063-5.503 C13.79,21.259,13.417,21,13,21H6c-0.379,0-0.725,0.214-0.895,0.553l-4,8c-0.155,0.31-0.138,0.678,0.044,0.973S1.653,31,2,31h14h14 c0.347,0,0.668-0.18,0.851-0.475s0.199-0.663,0.044-0.973L26.895,21.553z"></path>
        <path fill="currentColor" d="M7.649,18.525C7.832,18.82,8.153,19,8.5,19h15c0.347,0,0.668-0.18,0.851-0.475s0.199-0.663,0.044-0.973l-4-8 C20.225,9.214,19.879,9,19.5,9h-7c-0.379,0-0.725,0.214-0.895,0.553l-4,8C7.451,17.862,7.467,18.23,7.649,18.525z"></path>
        <rect data-color="color-2" y="16" fill="currentColor" width="5" height="2"></rect>
        <rect data-color="color-2" x="5.454" y="4.954" transform="matrix(0.7071 -0.7071 0.7071 0.7071 -3.3805 6.747)" fill="currentColor" width="2" height="4.999"></rect>
        <rect data-color="color-2" x="15" y="1" fill="currentColor" width="2" height="5"></rect>
        <rect data-color="color-2" x="23.046" y="6.454" transform="matrix(0.7071 -0.7071 0.7071 0.7071 2.2114 20.2469)" fill="currentColor" width="4.999" height="2"></rect>
        <rect data-color="color-2" x="27" y="16" fill="currentColor" width="5" height="2"></rect>
    </g>
</svg>