<svg xmlns="http://www.w3.org/2000/svg" height="32" width="32" viewBox="0 0 32 32">
    <title>grain 2</title>
    <g fill="currentColor" class="nc-icon-wrapper">
        <path d="M14.5,32c-.827,0-1.5-.673-1.5-1.5s.673-1.5,1.5-1.5,1.5,.673,1.5,1.5-.673,1.5-1.5,1.5Zm0-1.5h0s0,0,0,0Z" fill="currentColor" data-color="color-2"></path>
        <path d="M9.5,25c-.827,0-1.5-.673-1.5-1.5s.673-1.5,1.5-1.5,1.5,.673,1.5,1.5-.673,1.5-1.5,1.5Zm0-1.5h0s0,0,0,0Z" fill="currentColor" data-color="color-2"></path>
        <path d="M24.5,32c-.827,0-1.5-.673-1.5-1.5s.673-1.5,1.5-1.5,1.5,.673,1.5,1.5-.673,1.5-1.5,1.5Zm0-1.5h0s0,0,0,0Z" fill="currentColor" data-color="color-2"></path>
        <path d="M19.5,25c-.827,0-1.5-.673-1.5-1.5s.673-1.5,1.5-1.5,1.5,.673,1.5,1.5-.673,1.5-1.5,1.5Zm0-1.5h0s0,0,0,0Z" fill="currentColor" data-color="color-2"></path>
        <path d="M18.5,10h11.5c1.105,0,2-.895,2-2s-.895-2-2-2h-11.5c-.276,0-.5-.224-.5-.5s.224-.5,.5-.5h8.5c1.105,0,2-.895,2-2s-.895-2-2-2h-9s0,0,0,0c0,.002,0,.003,0,.005v-.005c0,2.757-2.243,5-5,5h-2.586c-.748,1.847-2.168,3.364-3.985,4.229-.138,.065-.285,.097-.429,.097-.374,0-.732-.21-.904-.57-.237-.499-.025-1.096,.474-1.333,1.535-.729,2.693-2.081,3.177-3.707,.126-.424,.516-.715,.958-.715h3.294c1.654,0,3-1.346,3-3v-.002c-.001-.552-.448-.998-1-.998H7C4.542,0,2.174,.909,.333,2.562c-.211,.189-.333,.46-.333,.744v14.34c0,.356,.189,.686,.497,.864,1.674,.975,3.578,1.49,5.503,1.49H26c1.105,0,2-.895,2-2s-.895-2-2-2h-8.5c-.276,0-.5-.224-.5-.5s.224-.5,.5-.5h11.5c1.105,0,2-.895,2-2s-.895-2-2-2h-10.5c-.276,0-.5-.224-.5-.5s.224-.5,.5-.5Zm-6.5,6c-.827,0-1.5-.673-1.5-1.5s.673-1.5,1.5-1.5,1.5,.673,1.5,1.5-.673,1.5-1.5,1.5Z" fill="currentColor"></path>
    </g>
</svg>