<svg xmlns="http://www.w3.org/2000/svg" height="32" width="32" viewBox="0 0 32 32">
    <title>cake slice</title>
    <g fill="currentColor" class="nc-icon-wrapper">
        <path fill="currentColor" d="M16,16v4c0,2.2-1.8,4-4,4s-4-1.8-4-4v-4H0v11c0,0.6,0.4,1,1,1h30c0.6,0,1-0.4,1-1V16H16z"></path>
        <path data-color="color-2" fill="currentColor" d="M31.4,12.1l-19-8C12.3,4,12.1,4,12,4C3.8,4,0,8.7,0,13c0,0.6,0.4,1,1,1h9v6c0,1.1,0.9,2,2,2 s2-0.9,2-2v-6h17c0.5,0,0.9-0.3,1-0.8C32.1,12.7,31.8,12.3,31.4,12.1z"></path>
    </g>
</svg>