<svg xmlns="http://www.w3.org/2000/svg" height="32" width="32" viewBox="0 0 32 32">
    <title>needle</title>
    <g fill="currentColor" class="nc-icon-wrapper">
        <path fill="currentColor" d="M29,2.2c-1.1-1.1-2.6-1.7-4.1-1.7c-1.8,0-3.4,0.8-4.5,2.2L1.8,25.9c-0.6,0.8-0.7,1.8-0.3,2.6 C1.9,29.4,2.8,30,3.8,30c0.6,0,1.1-0.2,1.6-0.6l23.2-18.6c1.3-1,2.1-2.6,2.2-4.2C30.8,5,30.2,3.4,29,2.2z M24.7,7.7l-1,1 C23.5,8.9,23.3,9,23,9s-0.5-0.1-0.7-0.3c-0.4-0.4-0.4-1,0-1.4l1-1c0.4-0.4,1-0.4,1.4,0S25.1,7.3,24.7,7.7z"></path>
        <path data-color="color-2" fill="currentColor" d="M6.7,16.5L8,15l-2-2c-1.3-1.3-1.3-3.4,0-4.7C7.3,7,9.4,7,10.7,8.3l1.4,1.4l1.3-1.6l-1.3-1.3 c-2.1-2.1-5.4-2.1-7.5,0c-2.1,2.1-2.1,5.4,0,7.5L6.7,16.5z"></path>
        <path data-color="color-2" fill="currentColor" d="M28.1,13.8c0.6,1.2,0.4,2.8-0.6,3.8c-1.2,1.2-3.1,1.2-4.4,0.2l-1.6,1.3c1,0.9,2.3,1.5,3.7,1.5 c1.4,0,2.8-0.6,3.8-1.6c1.8-1.8,2-4.4,0.8-6.5L28.1,13.8z"></path>
        <path data-color="color-2" fill="currentColor" d="M16.3,23.3l-1.6,1.3l6.7,6.7c0.2,0.2,0.5,0.3,0.7,0.3s0.5-0.1,0.7-0.3c0.4-0.4,0.4-1,0-1.4 L16.3,23.3z"></path>
    </g>
</svg>