<svg xmlns="http://www.w3.org/2000/svg" height="32" width="32" viewBox="0 0 32 32">
    <title>palette</title>
    <g fill="currentColor" class="nc-icon-wrapper">
        <path fill="currentColor" d="M27.5,7.3c-1.4-0.7-2.9-1-4.5-1c-2.1,0-4.1,0.6-5.8,1.1c-1.2,0.4-2.3,0.7-3.1,0.7c-0.6,0-1-0.2-1.3-0.6 c-0.2-0.2,0-0.9,0.2-1.6c0.3-1.1,0.8-2.6-0.2-3.9c-0.6-0.8-1.6-1.2-2.8-1.2c-1.1,0-2.2,0.4-3.2,1C2.6,4.9,0,9.8,0,15 c0,8.9,7.2,16.1,16.1,16.1c7.2,0,13.5-4.8,15.5-11.7C31.8,18.5,33.6,10.3,27.5,7.3z M5,14c0-1.1,0.9-2,2-2s2,0.9,2,2 c0,1.1-0.9,2-2,2S5,15.1,5,14z M9,23c-1.1,0-2-0.9-2-2c0-1.1,0.9-2,2-2s2,0.9,2,2C11,22.1,10.1,23,9,23z M16,26c-1.1,0-2-0.9-2-2 c0-1.1,0.9-2,2-2s2,0.9,2,2C18,25.1,17.1,26,16,26z M23,18c-2.2,0-4-1.8-4-4s1.8-4,4-4s4,1.8,4,4S25.2,18,23,18z"></path>
    </g>
</svg>