<svg xmlns="http://www.w3.org/2000/svg" width="32" height="32" viewBox="0 0 32 32">
    <g class="nc-icon-wrapper" fill="currentColor">
        <path d="M31.707.293a1,1,0,0,0-.831-.285l-8,1a1,1,0,0,0-.626.331L9.28,16.038l2.634,2.634L26,4.586,27.414,6,13.328,20.086l2.634,2.634,14.7-12.97a1,1,0,0,0,.33-.626l1-8A1,1,0,0,0,31.707.293Z" fill="currentColor" data-color="color-2"></path>
        <path d="M6.707,16.293a1,1,0,0,0-1.414,1.414l3,3L2.707,26.293l-1-1A1,1,0,1,0,.293,26.707l5,5a1,1,0,1,0,1.414-1.414l-1-1,5.586-5.586,3,3a1,1,0,0,0,1.414-1.414L14.46,24.046Z" fill="currentColor"></path>
    </g>
</svg>