<svg xmlns="http://www.w3.org/2000/svg" width="24" height="24" viewBox="0 0 24 24">
    <title>calendar-date-2</title>
    <g fill="currentColor">
        <path d="M19,1c0-.552-.448-1-1-1s-1,.448-1,1V3h2V1Z"></path>
        <path d="M7,1c0-.552-.448-1-1-1s-1,.448-1,1V3h2V1Z"></path>
        <path d="M21,4H3c-1.657,0-3,1.343-3,3v13c0,1.657,1.343,3,3,3H21c1.657,0,3-1.343,3-3V7c0-1.657-1.343-3-3-3Zm1,16c0,.552-.448,1-1,1H3c-.552,0-1-.448-1-1V9H22v11Z"></path>
        <rect x="4" y="11" width="4" height="3" rx=".5" ry=".5"></rect>
        <rect x="10" y="11" width="4" height="3" rx=".5" ry=".5"></rect>
        <rect x="4" y="16" width="4" height="3" rx=".5" ry=".5"></rect>
        <rect x="10" y="16" width="4" height="3" rx=".5" ry=".5"></rect>
        <rect x="16" y="11" width="4" height="3" rx=".5" ry=".5"></rect>
    </g>
</svg>