<svg xmlns="http://www.w3.org/2000/svg" width="24" height="24" viewBox="0 0 24 24">
    <title>file-article</title>
    <g fill="currentColor">
        <path d="M2,1V23c0,.552,.448,1,1,1H21c.552,0,1-.448,1-1V1c0-.552-.448-1-1-1H3c-.552,0-1,.448-1,1Zm3.5,4h5c.276,0,.5,.224,.5,.5v5c0,.276-.224,.5-.5,.5H5.5c-.276,0-.5-.224-.5-.5V5.5c0-.276,.224-.5,.5-.5Zm13,14H5.5c-.276,0-.5-.224-.5-.5v-1c0-.276,.224-.5,.5-.5h13c.276,0,.5,.224,.5,.5v1c0,.276-.224,.5-.5,.5Zm0-4H5.5c-.276,0-.5-.224-.5-.5v-1c0-.276,.224-.5,.5-.5h13c.276,0,.5,.224,.5,.5v1c0,.276-.224,.5-.5,.5Zm0-4h-5c-.276,0-.5-.224-.5-.5v-1c0-.276,.224-.5,.5-.5h5c.276,0,.5,.224,.5,.5v1c0,.276-.224,.5-.5,.5Zm0-4h-5c-.276,0-.5-.224-.5-.5v-1c0-.276,.224-.5,.5-.5h5c.276,0,.5,.224,.5,.5v1c0,.276-.224,.5-.5,.5Z"></path>
    </g>
</svg>