<svg xmlns="http://www.w3.org/2000/svg" height="32" width="32" viewBox="0 0 32 32">
    <title>b comment</title>
    <g fill="currentColor" class="nc-icon-wrapper">
        <path data-color="color-2" d="M30.539,15.616c-1.726,5.944-8.253,10.384-16.039,10.384-.92,0-1.861-.081-2.807-.217,2.11,1.966,5.27,3.217,8.807,3.217,1.094,0,2.148-.127,3.15-.35l4.56,3.257c.086,.062,.188,.093,.291,.093,.078,0,.157-.019,.229-.056,.167-.085,.271-.257,.271-.444v-5.453c1.858-1.599,3-3.716,3-6.047,0-1.593-.534-3.086-1.461-4.384Z" fill="currentColor"></path>
        <path d="M14.5,1C6.492,1,0,6.149,0,12.5c0,2.631,1.126,5.047,3,6.985v8.015c0,.18,.097,.346,.253,.435,.077,.043,.162,.065,.247,.065,.089,0,.178-.024,.257-.071l7.161-4.297c1.148,.232,2.343,.368,3.581,.368,8.008,0,14.5-5.149,14.5-11.5S22.508,1,14.5,1Z" fill="currentColor"></path>
    </g>
</svg>