<svg focusable="false" xmlns="http://www.w3.org/2000/svg" viewBox="0 0 48 48">
    <title>HTML5</title>
    <g>
        <path fill="#EA9860" d="M44.486,1.662C44.107,1.24,43.567,1,43,1H5C4.433,1,3.893,1.24,3.514,1.662 C3.134,2.083,2.952,2.646,3.011,3.209l4,38c0.086,0.824,0.673,1.51,1.474,1.724l15,4C23.653,46.978,23.827,47,24,47 s0.347-0.022,0.515-0.067l15-4c0.801-0.214,1.387-0.899,1.474-1.724l4-38C45.048,2.646,44.866,2.083,44.486,1.662z"></path>
        <path fill="#FFFFFF" d="M36,14H16.19l0.637,7H35.19l-1.327,14.596L24,38.062l-10-2.5V29h4v3.438l6,1.5l6.137-1.534L30.81,25H13.173 L11.81,10H36V14z"></path>
    </g>
</svg>