<svg xmlns="http://www.w3.org/2000/svg" width="32" height="32" viewBox="0 0 32 32"><g class="nc-icon-wrapper" fill="#212121"><path data-color="color-2" fill="#212121" d="M31,6h-1v16c0,1.35-0.909,2.54-2.212,2.895l-10.999,3C16.532,27.964,16.267,28,16,28 s-0.532-0.036-0.789-0.105l-11-3C2.909,24.54,2,23.35,2,22V6H1C0.447,6,0,6.448,0,7v22c0,0.552,0.447,1,1,1h30c0.553,0,1-0.448,1-1 V7C32,6.448,31.553,6,31,6z"></path> <path fill="#212121" d="M15,4.691L5.263,2.035c-0.298-0.08-0.621-0.019-0.87,0.17C4.146,2.395,4,2.688,4,3v19 c0,0.451,0.302,0.846,0.737,0.965L15,25.764V4.691z"></path> <path fill="#212121" d="M27.607,2.205c-0.249-0.189-0.571-0.25-0.87-0.17L17,4.691v21.073l10.263-2.799 C27.698,22.846,28,22.451,28,22V3C28,2.688,27.854,2.395,27.607,2.205z"></path></g></svg>