<svg xmlns="http://www.w3.org/2000/svg" height="32" width="32" viewBox="0 0 32 32">
    <title>poop</title>
    <g fill="currentColor" class="nc-icon-wrapper">
        <path d="M5,8H5A3,3,0,0,1,8,5H20c3,0,7-4,7-4V8a3,3,0,0,1-3,3H8A3,3,0,0,1,5,8Z" fill="currentColor"></path>
        <path d="M32,26a4,4,0,0,0-4-4H4a4,4,0,0,0-4,4H0a4,4,0,0,0,4,4H28a4,4,0,0,0,4-4Z" fill="currentColor"></path>
        <path data-color="color-2" d="M25.5,20H6.5A3.5,3.5,0,0,1,3,16.5H3A3.5,3.5,0,0,1,6.5,13h19A3.5,3.5,0,0,1,29,16.5h0A3.5,3.5,0,0,1,25.5,20Z" fill="currentColor"></path>
    </g>
</svg>