<svg focusable="false" xmlns="http://www.w3.org/2000/svg" viewBox="0 0 48 48">
    <title>Progressive Web App</title>
    <g>
        <path fill="#444444" d="M35,47H13c-2.209,0-4-1.791-4-4V5c0-2.209,1.791-4,4-4h22c2.209,0,4,1.791,4,4v38C39,45.209,37.209,47,35,47 z"></path>
        <circle fill="#595959" cx="24" cy="42" r="2"></circle>
        <path fill="#43A6DD" d="M35,37H13c-0.552,0-1-0.448-1-1V8c0-0.552,0.448-1,1-1h22c0.552,0,1,0.448,1,1v28C36,36.552,35.552,37,35,37 z"></path>
        <path fill="#FFFFFF" d="M20,27.414l-4.707-4.707c-0.391-0.391-0.391-1.023,0-1.414L20,16.586L21.414,18l-4,4l4,4L20,27.414z"></path>
        <path fill="#FFFFFF" d="M28,27.414L26.586,26l4-4l-4-4L28,16.586l4.707,4.707c0.391,0.391,0.391,1.023,0,1.414L28,27.414z"></path>
    </g>
</svg>