<svg xmlns="http://www.w3.org/2000/svg" width="24" height="24" viewBox="0 0 24 24">
    <title>water-wave</title>
    <g fill="currentColor">
        <path d="M1,17a3.962,3.962,0,0,0,3.138-1.528,3.033,3.033,0,0,1,4.723,0,3.992,3.992,0,0,0,5.6.682,4.075,4.075,0,0,0,.682-.682,3,3,0,0,1,4.724,0A3.961,3.961,0,0,0,23,17a2.966,2.966,0,0,1,1,.184V13a1,1,0,0,0-1-1H22a4.164,4.164,0,0,1-4.407-3.747,2.2,2.2,0,0,1,1.653-2.615l1.65-.3L19.852,4.03a8.574,8.574,0,0,0-5.208-3A6.29,6.29,0,0,0,9.875,2.644,11.993,11.993,0,0,0,6.709,7.7C5.6,10.445,4.829,12,2,12H1a1,1,0,0,0-1,1v4.184A2.966,2.966,0,0,1,1,17Z"></path>
        <path d="M23,19a5.946,5.946,0,0,1-4.712-2.3,1,1,0,0,0-.788-.384h0a1,1,0,0,0-.787.383,5.982,5.982,0,0,1-9.425,0,1.037,1.037,0,0,0-1.576,0A5.946,5.946,0,0,1,1,19a1,1,0,0,0-1,1v2a1,1,0,0,0,1,1H23a1,1,0,0,0,1-1V20A1,1,0,0,0,23,19Z"></path>
    </g>
</svg>